<svg xmlns="http://www.w3.org/2000/svg" class="logo" viewbox="0 0 730 161">
  <g>
    <path class="tile-top" d="M625.032,20.182 L601.911,20.182 L590.351,40.205 L613.471,40.205 L625.032,20.182 Z"/>
    <path class="tile-top" d="M613.471,40.205 L590.351,40.205 L578.791,60.228 L601.911,60.228 L613.471,40.205 Z"/>
    <path class="tile-top" d="M601.911,60.228 L578.791,60.228 L567.231,80.251 L590.351,80.251 L601.911,60.228 Z"/>
    <path class="tile-top" d="M590.351,80.251 L567.231,80.251 L555.67,100.274 L578.791,100.274 L590.351,80.251 Z"/>
    <path class="tile-top" d="M578.791,100.274 L555.67,100.274 L544.11,120.297 L567.231,120.297 L578.791,100.274 Z"/>
    <path class="tile-top" d="M636.592,120.297 L613.471,120.297 L601.911,140.319 L625.032,140.319 L636.592,120.297 Z"/>
    <path class="tile-top" d="M671.272,100.274 L648.152,100.274 L636.592,120.297 L659.712,120.297 L671.272,100.274 Z"/>
    <path class="tile-top" d="M682.833,80.251 L659.712,80.251 L648.152,100.274 L671.272,100.274 L682.833,80.251 Z"/>
    <path class="tile-top" d="M694.393,60.228 L671.272,60.228 L659.712,80.251 L682.833,80.251 L694.393,60.228 Z"/>
    <path class="tile-top" d="M705.953,40.205 L682.833,40.205 L671.272,60.228 L694.393,60.228 L705.953,40.205 Z"/>
    <path class="tile-top" d="M705.953,0.159 L682.833,0.159 L671.272,20.182 L694.393,20.182 L705.953,0.159 Z"/>
    <path class="tile-top" d="M682.833,0.159 L659.712,0.159 L648.152,20.182 L671.272,20.182 L682.833,0.159 Z"/>
    <path class="tile-top" d="M659.712,0.159 L636.592,0.159 L625.032,20.182 L648.152,20.182 L659.712,0.159 Z"/>
    <path class="tile-top" d="M613.471,80.251 L590.351,80.251 L578.791,100.274 L601.911,100.274 L613.471,80.251 Z"/>
    <path class="tile-top" d="M625.032,60.228 L601.911,60.228 L590.351,80.251 L613.471,80.251 L625.032,60.228 Z"/>
    <path class="tile-top" d="M636.592,40.205 L613.471,40.205 L601.911,60.228 L625.032,60.228 L636.592,40.205 Z"/>
    <path class="tile-top" d="M648.152,20.182 L625.032,20.182 L613.471,40.205 L636.592,40.205 L648.152,20.182 Z"/>
    <path class="tile-top" d="M648.152,100.274 L625.032,100.274 L613.471,120.297 L636.592,120.297 L648.152,100.274 Z"/>
    <path class="tile-top" d="M671.272,60.228 L648.152,60.228 L636.592,80.251 L659.712,80.251 L671.272,60.228 Z"/>
    <path class="tile-top" d="M682.833,40.205 L659.712,40.205 L648.152,60.228 L671.272,60.228 L682.833,40.205 Z"/>
    <path class="tile-top" d="M428.508,120.297 L405.388,120.297 L393.828,140.319 L416.948,140.319 L428.508,120.297 Z"/>
    <path class="tile-top" d="M451.629,80.251 L428.508,80.251 L416.948,100.274 L440.068,100.274 L451.629,80.251 Z"/>
    <path class="tile-top" d="M463.189,60.228 L440.068,60.228 L428.508,80.251 L451.629,80.251 L463.189,60.228 Z"/>
    <path class="tile-top" d="M474.749,40.205 L451.629,40.205 L440.068,60.228 L463.189,60.228 L474.749,40.205 Z"/>
    <path class="tile-top" d="M486.309,20.182 L463.189,20.182 L451.629,40.205 L474.749,40.205 L486.309,20.182 Z"/>
    <path class="tile-top" d="M497.869,0.159 L474.749,0.159 L463.189,20.182 L486.309,20.182 L497.869,0.159 Z"/>
    <path class="tile-top" d="M520.99,0.159 L497.869,0.159 L486.309,20.182 L509.43,20.182 L520.99,0.159 Z"/>
    <path class="tile-top" d="M544.11,0.159 L520.99,0.159 L509.43,20.182 L532.55,20.182 L544.11,0.159 Z"/>
    <path class="tile-top" d="M451.629,120.297 L428.508,120.297 L416.948,140.319 L440.068,140.319 L451.629,120.297 Z"/>
    <path class="tile-top" d="M463.189,100.274 L440.068,100.274 L428.508,120.297 L451.629,120.297 L463.189,100.274 Z"/>
    <path class="tile-top" d="M474.749,80.251 L451.629,80.251 L440.068,100.274 L463.189,100.274 L474.749,80.251 Z"/>
    <path class="tile-top" d="M497.869,40.205 L474.749,40.205 L463.189,60.228 L486.309,60.228 L497.869,40.205 Z"/>
    <path class="tile-top" d="M509.43,20.182 L486.309,20.182 L474.749,40.205 L497.869,40.205 L509.43,20.182 Z"/>
    <path class="tile-top" d="M544.11,40.205 L520.99,40.205 L509.43,60.228 L532.55,60.228 L544.11,40.205 Z"/>
    <path class="tile-top" d="M486.309,60.228 L463.189,60.228 L451.629,80.251 L474.749,80.251 L486.309,60.228 Z"/>
    <path class="tile-top" d="M532.55,100.274 L509.43,100.274 L497.869,120.297 L520.99,120.297 L532.55,100.274 Z"/>
    <path class="tile-top" d="M520.99,120.297 L497.869,120.297 L486.309,140.319 L509.43,140.319 L520.99,120.297 Z"/>
    <path class="tile-top" d="M567.231,0.159 L544.11,0.159 L532.55,20.182 L555.67,20.182 L567.231,0.159 Z"/>
    <path class="tile-top" d="M347.587,20.182 L324.466,20.182 L312.906,40.205 L336.027,40.205 L347.587,20.182 Z"/>
    <path class="tile-top" d="M336.027,40.205 L312.906,40.205 L301.346,60.228 L324.466,60.228 L336.027,40.205 Z"/>
    <path class="tile-top" d="M324.466,60.228 L301.346,60.228 L289.786,80.251 L312.906,80.251 L324.466,60.228 Z"/>
    <path class="tile-top" d="M312.906,80.251 L289.786,80.251 L278.226,100.274 L301.346,100.274 L312.906,80.251 Z"/>
    <path class="tile-top" d="M301.346,100.274 L278.226,100.274 L266.665,120.297 L289.786,120.297 L301.346,100.274 Z"/>
    <path class="tile-top" d="M393.828,100.274 L370.707,100.274 L359.147,120.297 L382.267,120.297 L393.828,100.274 Z"/>
    <path class="tile-top" d="M405.388,80.251 L382.267,80.251 L370.707,100.274 L393.828,100.274 L405.388,80.251 Z"/>
    <path class="tile-top" d="M416.948,60.228 L393.828,60.228 L382.267,80.251 L405.388,80.251 L416.948,60.228 Z"/>
    <path class="tile-top" d="M428.508,40.205 L405.388,40.205 L393.828,60.228 L416.948,60.228 L428.508,40.205 Z"/>
    <path class="tile-top" d="M405.388,0.159 L382.267,0.159 L370.707,20.182 L393.828,20.182 L405.388,0.159 Z"/>
    <path class="tile-top" d="M347.587,60.228 L324.466,60.228 L312.906,80.251 L336.027,80.251 L347.587,60.228 Z"/>
    <path class="tile-top" d="M359.147,40.205 L336.027,40.205 L324.466,60.228 L347.587,60.228 L359.147,40.205 Z"/>
    <path class="tile-top" d="M370.707,100.274 L347.587,100.274 L336.026,120.297 L359.147,120.297 L370.707,100.274 Z"/>
    <path class="tile-top" d="M382.267,80.251 L359.147,80.251 L347.587,100.274 L370.707,100.274 L382.267,80.251 Z"/>
    <path class="tile-top" d="M393.828,60.228 L370.707,60.228 L359.147,80.251 L382.267,80.251 L393.828,60.228 Z"/>
    <path class="tile-top" d="M405.388,40.205 L382.267,40.205 L370.707,60.228 L393.828,60.228 L405.388,40.205 Z"/>
    <path class="tile-top" d="M428.508,0.159 L405.388,0.159 L393.828,20.182 L416.948,20.182 L428.508,0.159 Z"/>
    <path class="tile-top" d="M382.267,0.159 L359.147,0.159 L347.587,20.182 L370.707,20.182 L382.267,0.159 Z"/>
    <path class="tile-top" d="M359.147,120.297 L336.027,120.297 L324.466,140.319 L347.587,140.319 L359.147,120.297 Z"/>
    <path class="tile-top" d="M220.424,0.159 L197.304,0.159 L185.744,20.182 L208.864,20.182 L220.424,0.159 Z"/>
    <path class="tile-top" d="M208.864,20.182 L185.744,20.182 L174.184,40.205 L197.304,40.205 L208.864,20.182 Z"/>
    <path class="tile-top" d="M197.304,40.205 L174.184,40.205 L162.623,60.228 L185.744,60.228 L197.304,40.205 Z"/>
    <path class="tile-top" d="M185.744,60.228 L162.623,60.228 L151.063,80.251 L174.184,80.251 L185.744,60.228 Z"/>
    <path class="tile-top" d="M174.184,80.251 L151.063,80.251 L139.503,100.274 L162.623,100.274 L174.184,80.251 Z"/>
    <path class="tile-top" d="M266.665,80.251 L243.545,80.251 L231.985,100.274 L255.105,100.274 L266.665,80.251 Z"/>
    <path class="tile-top" d="M278.226,60.228 L255.105,60.228 L243.545,80.251 L266.665,80.251 L278.226,60.228 Z"/>
    <path class="tile-top" d="M289.786,40.205 L266.665,40.205 L255.105,60.228 L278.226,60.228 L289.786,40.205 Z"/>
    <path class="tile-top" d="M301.346,20.182 L278.226,20.182 L266.665,40.205 L289.786,40.205 L301.346,20.182 Z"/>
    <path class="tile-top" d="M312.906,0.159 L289.786,0.159 L278.226,20.182 L301.346,20.182 L312.906,0.159 Z"/>
    <path class="tile-top" d="M185.744,100.274 L162.623,100.274 L151.063,120.297 L174.184,120.297 L185.744,100.274 Z"/>
    <path class="tile-top" d="M197.304,80.251 L174.184,80.251 L162.623,100.274 L185.744,100.274 L197.304,80.251 Z"/>
    <path class="tile-top" d="M208.864,60.228 L185.744,60.228 L174.184,80.251 L197.304,80.251 L208.864,60.228 Z"/>
    <path class="tile-top" d="M220.424,40.205 L197.304,40.205 L185.744,60.228 L208.864,60.228 L220.424,40.205 Z"/>
    <path class="tile-top" d="M231.985,20.182 L208.864,20.182 L197.304,40.205 L220.424,40.205 L231.985,20.182 Z"/>
    <path class="tile-top" d="M243.545,0.159 L220.424,0.159 L208.864,20.182 L231.985,20.182 L243.545,0.159 Z"/>
    <path class="tile-top" d="M289.786,0.159 L266.665,0.159 L255.105,20.182 L278.226,20.182 L289.786,0.159 Z"/>
    <path class="tile-top" d="M278.226,20.182 L255.105,20.182 L243.545,40.205 L266.665,40.205 L278.226,20.182 Z"/>
    <path class="tile-top" d="M266.665,40.205 L243.545,40.205 L231.985,60.228 L255.105,60.228 L266.665,40.205 Z"/>
    <path class="tile-top" d="M255.105,60.228 L231.985,60.228 L220.424,80.251 L243.545,80.251 L255.105,60.228 Z"/>
    <path class="tile-top" d="M243.545,80.251 L220.424,80.251 L208.864,100.274 L231.985,100.274 L243.545,80.251 Z"/>
    <path class="tile-top" d="M440.068,100.274 L416.948,100.274 L405.388,120.297 L428.508,120.297 L440.068,100.274 Z"/>
    <path class="tile-top" d="M162.623,100.274 L139.503,100.274 L127.943,120.297 L151.063,120.297 L162.623,100.274 Z"/>
    <path class="tile-top" d="M231.985,100.274 L208.864,100.274 L197.304,120.297 L220.424,120.297 L231.985,100.274 Z"/>
    <path class="tile-top" d="M255.105,100.274 L231.985,100.274 L220.424,120.297 L243.545,120.297 L255.105,100.274 Z"/>
    <path class="tile-top" d="M174.184,0.159 L151.063,0.159 L139.503,20.182 L162.623,20.182 L174.184,0.159 Z"/>
    <path class="tile-top" d="M162.623,20.182 L139.503,20.182 L127.943,40.205 L151.063,40.205 L162.623,20.182 Z"/>
    <path class="tile-top" d="M151.063,40.205 L127.943,40.205 L116.383,60.228 L139.503,60.228 L151.063,40.205 Z"/>
    <path class="tile-top" d="M139.503,60.228 L116.383,60.228 L104.822,80.251 L127.943,80.251 L139.503,60.228 Z"/>
    <path class="tile-top" d="M127.943,40.205 L104.822,40.205 L93.262,60.228 L116.383,60.228 L127.943,40.205 Z"/>
    <path class="tile-top" d="M139.503,20.182 L116.383,20.182 L104.822,40.205 L127.943,40.205 L139.503,20.182 Z"/>
    <path class="tile-top" d="M116.383,60.228 L93.262,60.228 L81.702,80.251 L104.822,80.251 L116.383,60.228 Z"/>
    <path class="tile-top" d="M81.702,0.159 L58.582,0.159 L47.021,20.182 L70.142,20.182 L81.702,0.159 Z"/>
    <path class="tile-top" d="M70.142,20.182 L47.021,20.182 L35.461,40.205 L58.582,40.205 L70.142,20.182 Z"/>
    <path class="tile-top" d="M58.582,40.205 L35.461,40.205 L23.901,60.228 L47.021,60.228 L58.582,40.205 Z"/>
    <path class="tile-top" d="M70.142,60.228 L47.021,60.228 L35.461,80.251 L58.582,80.251 L70.142,60.228 Z"/>
    <path class="tile-top" d="M93.262,20.182 L70.142,20.182 L58.582,40.205 L81.702,40.205 L93.262,20.182 Z"/>
    <path class="tile-top" d="M81.702,40.205 L58.582,40.205 L47.021,60.228 L70.142,60.228 L81.702,40.205 Z"/>
    <path class="tile-top" d="M70.142,100.274 L47.021,100.274 L35.461,120.297 L58.582,120.297 L70.142,100.274 Z"/>
    <path class="tile-top" d="M58.582,80.251 L35.461,80.251 L23.901,100.274 L47.021,100.274 L58.582,80.251 Z"/>
    <path class="tile-top" d="M47.021,60.228 L23.901,60.228 L12.341,80.251 L35.461,80.251 L47.021,60.228 Z"/>
    <path class="tile-top" d="M104.822,0.159 L81.702,0.159 L70.142,20.182 L93.262,20.182 L104.822,0.159 Z"/>
    <path class="tile-top" d="M151.063,0.159 L127.943,0.159 L116.383,20.182 L139.503,20.182 L151.063,0.159 Z"/>
    <path class="tile-top" d="M35.461,80.251 L12.341,80.251 L0.781,100.274 L23.901,100.274 L35.461,80.251 Z"/>
    <path class="tile-top" d="M127.943,80.251 L104.822,80.251 L93.262,100.274 L116.383,100.274 L127.943,80.251 Z"/>
    <path class="tile-top" d="M509.43,100.274 L486.309,100.274 L474.749,120.297 L497.869,120.297 L509.43,100.274 Z"/>
    <path class="tile-top" d="M567.231,40.205 L544.11,40.205 L532.55,60.228 L555.67,60.228 L567.231,40.205 Z"/>
    <path class="tile-top" d="M532.55,60.228 L509.43,60.228 L497.869,80.251 L520.99,80.251 L532.55,60.228 Z"/>
    <path class="tile-top" d="M497.869,120.297 L474.749,120.297 L463.189,140.319 L486.309,140.319 L497.869,120.297 Z"/>
    <path class="tile-top" d="M336.027,80.251 L312.906,80.251 L301.346,100.274 L324.466,100.274 L336.027,80.251 Z"/>
    <path class="tile-top" d="M370.707,20.182 L347.587,20.182 L336.027,40.205 L359.147,40.205 L370.707,20.182 Z"/>
    <path class="tile-top" d="M104.822,80.251 L81.702,80.251 L70.142,100.274 L93.262,100.274 L104.822,80.251 Z"/>
    <path class="tile-top" d="M93.262,100.274 L70.142,100.274 L58.582,120.297 L81.702,120.297 L93.262,100.274 Z"/>
    <path class="tile-right" d="M104.822,0.159 L93.262,20.182 L104.822,40.205 L116.383,20.182 L104.822,0.159 Z"/>
    <path class="tile-right" d="M93.262,20.182 L81.702,40.205 L93.262,60.228 L104.822,40.205 L93.262,20.182 Z"/>
    <path class="tile-right" d="M81.702,40.205 L70.142,60.228 L81.702,80.251 L93.262,60.228 L81.702,40.205 Z"/>
    <path class="tile-right" d="M70.142,60.228 L58.582,80.251 L70.142,100.274 L81.702,80.251 L70.142,60.228 Z"/>
    <path class="tile-top" d="M81.702,80.251 L58.582,80.251 L47.021,100.274 L70.142,100.274 L81.702,80.251 Z"/>
    <path class="tile-left" d="M23.901,100.274 L0.781,100.274 L12.341,120.297 L35.461,120.297 L23.901,100.274 Z"/>
    <path class="tile-left" d="M35.461,120.297 L12.341,120.297 L23.901,140.319 L47.021,140.319 L35.461,120.297 Z"/>
    <path class="tile-top" d="M47.021,100.274 L23.901,100.274 L12.341,120.297 L35.461,120.297 L47.021,100.274 Z"/>
    <path class="tile-top" d="M58.582,120.297 L35.461,120.297 L23.901,140.319 L47.021,140.319 L58.582,120.297 Z"/>
    <path class="tile-right" d="M58.582,120.297 L47.021,140.319 L58.582,160.342 L70.142,140.319 L58.582,120.297 Z"/>
    <path class="tile-left" d="M47.021,140.319 L23.901,140.319 L35.461,160.342 L58.582,160.342 L47.021,140.319 Z"/>
    <path class="tile-left" d="M81.702,120.297 L58.582,120.297 L70.142,140.319 L93.262,140.319 L81.702,120.297 Z"/>
    <path class="tile-right" d="M93.262,100.274 L81.702,120.297 L93.262,140.319 L104.822,120.297 L93.262,100.274 Z"/>
    <path class="tile-left" d="M116.383,100.274 L93.262,100.274 L104.822,120.297 L127.943,120.297 L116.383,100.274 Z"/>
    <path class="tile-right" d="M127.943,80.251 L116.383,100.274 L127.943,120.297 L139.503,100.274 L127.943,80.251 Z"/>
    <path class="tile-right" d="M139.503,60.228 L127.943,80.251 L139.503,100.274 L151.063,80.251 L139.503,60.228 Z"/>
    <path class="tile-right" d="M151.063,40.205 L139.503,60.228 L151.063,80.251 L162.623,60.228 L151.063,40.205 Z"/>
    <path class="tile-right" d="M162.623,20.182 L151.063,40.205 L162.623,60.228 L174.184,40.205 L162.623,20.182 Z"/>
    <path class="tile-right" d="M174.184,0.159 L162.623,20.182 L174.184,40.205 L185.744,20.182 L174.184,0.159 Z"/>
    <path class="tile-right" d="M243.545,0.159 L231.985,20.182 L243.545,40.205 L255.105,20.182 L243.545,0.159 Z"/>
    <path class="tile-right" d="M231.985,20.182 L220.424,40.205 L231.985,60.228 L243.545,40.205 L231.985,20.182 Z"/>
    <path class="tile-right" d="M220.424,40.205 L208.864,60.228 L220.424,80.251 L231.985,60.228 L220.424,40.205 Z"/>
    <path class="tile-right" d="M208.864,60.228 L197.304,80.251 L208.864,100.274 L220.424,80.251 L208.864,60.228 Z"/>
    <path class="tile-right" d="M197.304,80.251 L185.744,100.274 L197.304,120.297 L208.864,100.274 L197.304,80.251 Z"/>
    <path class="tile-right" d="M185.744,100.274 L174.184,120.297 L185.744,140.319 L197.304,120.297 L185.744,100.274 Z"/>
    <path class="tile-top" d="M197.304,120.297 L174.184,120.297 L162.623,140.319 L185.744,140.319 L197.304,120.297 Z"/>
    <path class="tile-right" d="M255.105,100.274 L243.545,120.297 L255.105,140.319 L266.665,120.297 L255.105,100.274 Z"/>
    <path class="tile-right" d="M266.665,80.251 L255.105,100.274 L266.665,120.297 L278.226,100.274 L266.665,80.251 Z"/>
    <path class="tile-right" d="M278.226,60.228 L266.665,80.251 L278.226,100.274 L289.786,80.251 L278.226,60.228 Z"/>
    <path class="tile-right" d="M289.786,40.205 L278.226,60.228 L289.786,80.251 L301.346,60.228 L289.786,40.205 Z"/>
    <path class="tile-right" d="M301.346,20.182 L289.786,40.205 L301.346,60.228 L312.906,40.205 L301.346,20.182 Z"/>
    <path class="tile-right" d="M312.906,0.159 L301.346,20.182 L312.906,40.205 L324.466,20.182 L312.906,0.159 Z"/>
    <path class="tile-right" d="M370.707,20.182 L359.147,40.205 L370.707,60.228 L382.267,40.205 L370.707,20.182 Z"/>
    <path class="tile-left" d="M393.828,20.182 L370.707,20.182 L382.267,40.205 L405.388,40.205 L393.828,20.182 Z"/>
    <path class="tile-top" d="M416.948,20.182 L393.828,20.182 L382.267,40.205 L405.388,40.205 L416.948,20.182 Z"/>
    <path class="tile-right" d="M359.147,40.205 L347.587,60.228 L359.147,80.251 L370.707,60.228 L359.147,40.205 Z"/>
    <path class="tile-right" d="M347.587,60.228 L336.027,80.251 L347.587,100.274 L359.147,80.251 L347.587,60.228 Z"/>
    <path class="tile-right" d="M336.027,80.251 L324.466,100.274 L336.026,120.297 L347.587,100.274 L336.027,80.251 Z"/>
    <path class="tile-right" d="M324.466,100.274 L312.906,120.297 L324.466,140.319 L336.027,120.297 L324.466,100.274 Z"/>
    <path class="tile-left" d="M289.786,120.297 L266.665,120.297 L278.226,140.319 L301.346,140.319 L289.786,120.297 Z"/>
    <path class="tile-left" d="M301.346,140.319 L278.226,140.319 L289.786,160.342 L312.906,160.342 L301.346,140.319 Z"/>
    <path class="tile-top" d="M336.026,120.297 L312.906,120.297 L301.346,140.319 L324.466,140.319 L336.026,120.297 Z"/>
    <path class="tile-top" d="M324.466,100.274 L301.346,100.274 L289.786,120.297 L312.906,120.297 L324.466,100.274 Z"/>
    <path class="tile-top" d="M312.906,120.297 L289.786,120.297 L278.226,140.319 L301.346,140.319 L312.906,120.297 Z"/>
    <path class="tile-left" d="M324.466,140.319 L301.346,140.319 L312.906,160.342 L336.026,160.342 L324.466,140.319 Z"/>
    <path class="tile-left" d="M347.587,140.319 L324.466,140.319 L336.026,160.342 L359.147,160.342 L347.587,140.319 Z"/>
    <path class="tile-right" d="M359.147,120.297 L347.587,140.319 L359.147,160.342 L370.707,140.319 L359.147,120.297 Z"/>
    <path class="tile-left" d="M382.267,120.297 L359.147,120.297 L370.707,140.319 L393.828,140.319 L382.267,120.297 Z"/>
    <path class="tile-right" d="M393.828,100.274 L382.267,120.297 L393.828,140.319 L405.388,120.297 L393.828,100.274 Z"/>
    <path class="tile-right" d="M405.388,80.251 L393.828,100.274 L405.388,120.297 L416.948,100.274 L405.388,80.251 Z"/>
    <path class="tile-right" d="M416.948,60.228 L405.388,80.251 L416.948,100.274 L428.508,80.251 L416.948,60.228 Z"/>
    <path class="tile-right" d="M428.508,40.205 L416.948,60.228 L428.508,80.251 L440.068,60.228 L428.508,40.205 Z"/>
    <path class="tile-right" d="M440.068,20.182 L428.508,40.205 L440.068,60.228 L451.629,40.205 L440.068,20.182 Z"/>
    <path class="tile-right" d="M428.508,0.159 L416.948,20.182 L428.508,40.205 L440.068,20.182 L428.508,0.159 Z"/>
    <path class="tile-top" d="M440.068,20.182 L416.948,20.182 L405.388,40.205 L428.508,40.205 L440.068,20.182 Z"/>
    <path class="tile-left" d="M416.948,140.319 L393.828,140.319 L405.388,160.342 L428.508,160.342 L416.948,140.319 Z"/>
    <path class="tile-left" d="M440.068,140.319 L416.948,140.319 L428.508,160.342 L451.629,160.342 L440.068,140.319 Z"/>
    <path class="tile-right" d="M451.629,120.297 L440.068,140.319 L451.629,160.342 L463.189,140.319 L451.629,120.297 Z"/>
    <path class="tile-right" d="M463.189,100.274 L451.629,120.297 L463.189,140.319 L474.749,120.297 L463.189,100.274 Z"/>
    <path class="tile-right" d="M474.749,80.251 L463.189,100.274 L474.749,120.297 L486.309,100.274 L474.749,80.251 Z"/>
    <path class="tile-left" d="M497.869,80.251 L474.749,80.251 L486.309,100.274 L509.43,100.274 L497.869,80.251 Z"/>
    <path class="tile-top" d="M520.99,80.251 L497.869,80.251 L486.309,100.274 L509.43,100.274 L520.99,80.251 Z"/>
    <path class="tile-right" d="M497.869,40.205 L486.309,60.228 L497.869,80.251 L509.43,60.228 L497.869,40.205 Z"/>
    <path class="tile-top" d="M509.43,60.228 L486.309,60.228 L474.749,80.251 L497.869,80.251 L509.43,60.228 Z"/>
    <path class="tile-right" d="M509.43,20.182 L497.869,40.205 L509.43,60.228 L520.99,40.205 L509.43,20.182 Z"/>
    <path class="tile-left" d="M532.55,20.182 L509.43,20.182 L520.99,40.205 L544.11,40.205 L532.55,20.182 Z"/>
    <path class="tile-top" d="M555.67,20.182 L532.55,20.182 L520.99,40.205 L544.11,40.205 L555.67,20.182 Z"/>
    <path class="tile-left" d="M555.67,60.228 L532.55,60.228 L544.11,80.251 L567.231,80.251 L555.67,60.228 Z"/>
    <path class="tile-right" d="M532.55,60.228 L520.99,80.251 L532.55,100.274 L544.11,80.251 L532.55,60.228 Z"/>
    <path class="tile-top" d="M544.11,80.251 L520.99,80.251 L509.43,100.274 L532.55,100.274 L544.11,80.251 Z"/>
    <path class="tile-left" d="M486.309,140.319 L463.189,140.319 L474.749,160.342 L497.869,160.342 L486.309,140.319 Z"/>
    <path class="tile-left" d="M509.43,140.319 L486.309,140.319 L497.869,160.342 L520.99,160.342 L509.43,140.319 Z"/>
    <path class="tile-right" d="M520.99,120.297 L509.43,140.319 L520.99,160.342 L532.55,140.319 L520.99,120.297 Z"/>
    <path class="tile-right" d="M532.55,100.274 L520.99,120.297 L532.55,140.319 L544.11,120.297 L532.55,100.274 Z"/>
    <path class="tile-right" d="M544.11,80.251 L532.55,100.274 L544.11,120.297 L555.67,100.274 L544.11,80.251 Z"/>
    <path class="tile-right" d="M567.231,40.205 L555.67,60.228 L567.231,80.251 L578.791,60.228 L567.231,40.205 Z"/>
    <path class="tile-right" d="M578.791,20.182 L567.231,40.205 L578.791,60.228 L590.351,40.205 L578.791,20.182 Z"/>
    <path class="tile-right" d="M567.231,0.159 L555.67,20.182 L567.231,40.205 L578.791,20.182 L567.231,0.159 Z"/>
    <path class="tile-top" d="M578.791,20.182 L555.67,20.182 L544.11,40.205 L567.231,40.205 L578.791,20.182 Z"/>
    <path class="tile-left" d="M567.231,120.297 L544.11,120.297 L555.67,140.319 L578.791,140.319 L567.231,120.297 Z"/>
    <path class="tile-top" d="M601.911,100.274 L578.791,100.274 L567.231,120.297 L590.351,120.297 L601.911,100.274 Z"/>
    <path class="tile-top" d="M590.351,120.297 L567.231,120.297 L555.67,140.319 L578.791,140.319 L590.351,120.297 Z"/>
    <path class="tile-left" d="M578.791,140.319 L555.67,140.319 L567.231,160.342 L590.351,160.342 L578.791,140.319 Z"/>
    <path class="tile-left" d="M601.911,140.319 L578.791,140.319 L590.351,160.342 L613.471,160.342 L601.911,140.319 Z"/>
    <path class="tile-left" d="M625.032,140.319 L601.911,140.319 L613.471,160.342 L636.592,160.342 L625.032,140.319 Z"/>
    <path class="tile-right" d="M636.592,120.297 L625.032,140.319 L636.592,160.342 L648.152,140.319 L636.592,120.297 Z"/>
    <path class="tile-left" d="M659.712,120.297 L636.592,120.297 L648.152,140.319 L671.272,140.319 L659.712,120.297 Z"/>
    <path class="tile-right" d="M671.272,100.274 L659.712,120.297 L671.272,140.319 L682.833,120.297 L671.272,100.274 Z"/>
    <path class="tile-right" d="M682.833,80.251 L671.272,100.274 L682.833,120.297 L694.393,100.274 L682.833,80.251 Z"/>
    <path class="tile-right" d="M694.393,60.228 L682.833,80.251 L694.393,100.274 L705.953,80.251 L694.393,60.228 Z"/>
    <path class="tile-right" d="M705.953,40.205 L694.393,60.228 L705.953,80.251 L717.513,60.228 L705.953,40.205 Z"/>
    <path class="tile-right" d="M717.513,20.182 L705.953,40.205 L717.513,60.228 L729.073,40.205 L717.513,20.182 Z"/>
    <path class="tile-right" d="M648.152,20.182 L636.592,40.205 L648.152,60.228 L659.712,40.205 L648.152,20.182 Z"/>
    <path class="tile-left" d="M671.272,20.182 L648.152,20.182 L659.712,40.205 L682.833,40.205 L671.272,20.182 Z"/>
    <path class="tile-top" d="M694.393,20.182 L671.272,20.182 L659.712,40.205 L682.833,40.205 L694.393,20.182 Z"/>
    <path class="tile-right" d="M636.592,40.205 L625.032,60.228 L636.592,80.251 L648.152,60.228 L636.592,40.205 Z"/>
    <path class="tile-top" d="M659.712,80.251 L636.592,80.251 L625.032,100.274 L648.152,100.274 L659.712,80.251 Z"/>
    <path class="tile-right" d="M625.032,60.228 L613.471,80.251 L625.032,100.274 L636.592,80.251 L625.032,60.228 Z"/>
    <path class="tile-right" d="M613.471,80.251 L601.911,100.274 L613.471,120.297 L625.032,100.274 L613.471,80.251 Z"/>
    <path class="tile-right" d="M601.911,100.274 L590.351,120.297 L601.911,140.319 L613.471,120.297 L601.911,100.274 Z"/>
    <path class="tile-top" d="M613.471,120.297 L590.351,120.297 L578.791,140.319 L601.911,140.319 L613.471,120.297 Z"/>
    <path class="tile-right" d="M705.953,0.159 L694.393,20.182 L705.953,40.205 L717.513,20.182 L705.953,0.159 Z"/>
    <path class="tile-top" d="M717.513,20.182 L694.393,20.182 L682.833,40.205 L705.953,40.205 L717.513,20.182 Z"/>
    <path class="tile-left" d="M162.623,140.319 L139.503,140.319 L151.063,160.342 L174.184,160.342 L162.623,140.319 Z"/>
    <path class="tile-left" d="M185.744,140.319 L162.623,140.319 L174.184,160.342 L197.304,160.342 L185.744,140.319 Z"/>
    <path class="tile-top" d="M220.424,120.297 L197.304,120.297 L185.744,140.319 L208.864,140.319 L220.424,120.297 Z"/>
    <path class="tile-left" d="M151.063,120.297 L127.943,120.297 L139.503,140.319 L162.623,140.319 L151.063,120.297 Z"/>
    <path class="tile-top" d="M174.184,120.297 L151.063,120.297 L139.503,140.319 L162.623,140.319 L174.184,120.297 Z"/>
    <path class="tile-right" d="M220.424,120.297 L208.864,140.319 L220.424,160.342 L231.985,140.319 L220.424,120.297 Z"/>
    <path class="tile-left" d="M243.545,120.297 L220.424,120.297 L231.985,140.319 L255.105,140.319 L243.545,120.297 Z"/>
    <path class="tile-left" d="M208.864,140.319 L185.744,140.319 L197.304,160.342 L220.424,160.342 L208.864,140.319 Z"/>
  </g>
</svg>
